<svg width="43" height="44" viewBox="0 0 43 44" fill="none" xmlns="http://www.w3.org/2000/svg">
<path d="M0.791332 21.9997C0.791332 19.0763 1.3319 16.3306 2.41304 13.7626C3.49416 11.1947 4.96516 8.95869 6.82607 7.05462C8.68698 5.15056 10.8723 3.64544 13.3821 2.53926C15.8918 1.43301 18.5752 0.879883 21.4325 0.879883C25.9281 0.879883 29.9782 2.21671 33.5828 4.89035C37.1873 7.56396 39.6837 11.0883 41.0721 15.4633H36.2684C34.9722 12.4198 32.9867 9.98716 30.3117 8.16535C27.6367 6.34358 24.677 5.4327 21.4325 5.4327C16.9176 5.4327 13.0903 7.03898 9.95054 10.2516C6.81078 13.4641 5.24091 17.3802 5.24091 21.9997C5.24091 26.6193 6.81078 30.5353 9.95054 33.7479C13.0903 36.9605 16.9176 38.5668 21.4325 38.5668C24.677 38.5668 27.6367 37.6559 30.3117 35.8341C32.9867 34.0123 34.9722 31.5797 36.2684 28.5362H41.0721C39.6837 32.9112 37.1873 36.4355 33.5828 39.1091C29.9782 41.7827 25.9281 43.1195 21.4325 43.1195C18.5752 43.1195 15.8918 42.5664 13.3821 41.4602C10.8723 40.354 8.68698 38.8489 6.82607 36.9448C4.96516 35.0408 3.49416 32.8048 2.41304 30.2368C1.33187 27.6689 0.791332 24.9232 0.791332 21.9997ZM12.8985 21.9997L23.4686 11.1845L26.7086 14.4997L21.7334 19.6299H42.0127V24.3695H21.7334L26.7086 29.4997L23.4686 32.8149L12.8985 21.9997Z" fill="#68ADFF"/>
</svg>
