<svg width="24" height="21" viewBox="0 0 24 21" fill="none" xmlns="http://www.w3.org/2000/svg">
<path fill-rule="evenodd" clip-rule="evenodd" d="M23.8092 15.1201C23.2499 13.8319 22.5128 12.655 21.6263 11.6348C21.3298 11.2516 21.0193 10.8828 20.6957 10.5294L20.6566 10.4859C20.5365 10.3529 20.4179 10.218 20.3008 10.0814C21.5128 8.15388 22.5498 6.09011 23.3959 3.92211L23.4298 3.83509L23.4535 3.74337C23.5656 3.31652 23.6931 2.50516 23.2406 1.7714C22.7717 1.01413 22.0221 0.877722 21.5193 0.877722H19.2088C18.725 0.85251 18.2467 1.00295 17.8422 1.30752C17.4377 1.61209 17.1279 2.05517 16.957 2.57336C16.4597 3.92756 15.8372 5.21702 15.0999 6.4197V3.32358C15.0999 2.92378 15.067 2.25352 14.6917 1.68909C14.2434 1.01177 13.5946 0.877722 13.1442 0.877722H9.47743C8.99895 0.865132 8.53457 1.06347 8.18046 1.43166C7.82634 1.79984 7.60961 2.30968 7.57516 2.85557L7.57207 2.90849V2.9614C7.57207 3.53171 7.7695 3.95268 7.92785 4.21726C7.9988 4.33602 8.07386 4.4442 8.12219 4.51241L8.13247 4.52769C8.18388 4.6006 8.21782 4.64881 8.25175 4.7029C8.34223 4.84165 8.47077 5.05802 8.50778 5.61539V7.34748C7.77173 5.93796 7.16821 4.44331 6.70731 2.8885L6.69908 2.86263L6.69086 2.83793C6.56541 2.46283 6.3649 1.91721 5.96285 1.50095C5.49397 1.01295 4.93871 0.877722 4.43384 0.877722H2.08941C1.57837 0.877722 0.962447 1.01413 0.502817 1.56797C0.0514128 2.11359 0 2.76738 0 3.11309V3.27066L0.0287911 3.42353C0.677929 6.8698 2.01562 10.0976 3.93719 12.8542C4.81571 14.4385 6.00839 15.7637 7.4185 16.7223C8.82861 17.6809 10.4164 18.2459 12.0532 18.3715L12.0954 18.375H12.1386C12.8851 18.375 13.6635 18.3009 14.2485 17.8553C15.0372 17.2532 15.0999 16.3301 15.0999 15.8692V14.531C15.3025 14.7192 15.5534 14.9708 15.8608 15.3094C16.2331 15.7351 16.5292 16.1044 16.7832 16.4265L16.9189 16.5982C17.1163 16.8499 17.3107 17.098 17.4875 17.3014C17.7096 17.5566 17.9842 17.8376 18.3276 18.0458C18.7009 18.2703 19.0926 18.3727 19.5081 18.3727H21.8535C22.3481 18.3727 23.0566 18.2386 23.5553 17.5777C24.0982 16.8581 24.0571 15.975 23.8864 15.3412L23.8555 15.2271L23.8092 15.1201ZM17.9276 15.2448C17.6089 14.8374 17.2808 14.4398 16.9436 14.0524L16.9405 14.0489C15.5452 12.5108 14.8943 12.2439 14.4336 12.2439C14.1879 12.2439 13.9174 12.2745 13.7416 12.5261C13.6624 12.6461 13.6105 12.7867 13.5904 12.9353C13.5657 13.1079 13.5546 13.2826 13.5575 13.4574V15.8692C13.5575 16.169 13.5144 16.2948 13.393 16.3866C13.2316 16.51 12.8871 16.61 12.1478 16.61C10.7434 16.5007 9.38178 16.0118 8.17481 15.1835C6.96784 14.3552 5.95002 13.2111 5.20503 11.8453L5.1968 11.83L5.18652 11.8159C3.39645 9.2679 2.14889 6.27888 1.54238 3.08487C1.5465 2.93201 1.57529 2.83911 1.62259 2.78267C1.67091 2.72387 1.78916 2.64156 2.08941 2.64156H4.43384C4.69398 2.64156 4.82971 2.70741 4.9274 2.80736C5.03639 2.9226 5.13305 3.11662 5.24821 3.46233C5.82404 5.39785 6.6014 7.20873 7.33866 8.53984C7.70677 9.20422 8.06872 9.75806 8.3957 10.1496C8.5592 10.3448 8.71858 10.5071 8.87179 10.6223C9.01883 10.7329 9.18643 10.8211 9.35918 10.8211C9.44967 10.8211 9.55558 10.8093 9.65737 10.7587C9.76731 10.7032 9.85781 10.6072 9.91444 10.4859C10.0203 10.2649 10.0502 9.93915 10.0502 9.5123V5.54601C9.99567 4.58413 9.74169 4.04205 9.49491 3.65753C9.44493 3.58062 9.39351 3.50495 9.34067 3.43058L9.3273 3.41177C9.28345 3.35086 9.24161 3.28811 9.20186 3.22363C9.15124 3.15172 9.12078 3.06401 9.11445 2.97199C9.12252 2.87855 9.16151 2.79216 9.22344 2.73052C9.28538 2.66888 9.36557 2.63663 9.44761 2.64038H13.1442C13.356 2.64038 13.427 2.69918 13.4629 2.75445C13.5144 2.83088 13.5575 2.98962 13.5575 3.32358V8.64802C13.5575 9.28065 13.8126 9.70867 14.1827 9.70867C14.6084 9.70867 14.9159 9.41352 15.4526 8.79971L15.4619 8.78795L15.4701 8.77737C16.6742 7.09852 17.6579 5.22802 18.3903 3.2248L18.3945 3.21069C18.4495 3.0337 18.5537 2.88216 18.691 2.77919C18.8284 2.67622 18.9915 2.62747 19.1554 2.64038H21.5204C21.8412 2.64038 21.9461 2.73446 21.981 2.78972C22.017 2.84852 22.0427 2.97434 21.981 3.22128C21.1364 5.38063 20.0923 7.4305 18.8664 9.33592L18.8582 9.35003C18.74 9.55816 18.6094 9.78864 18.5909 10.052C18.5703 10.3366 18.6772 10.5941 18.8654 10.8716C19.0022 11.1021 19.2849 11.4184 19.5718 11.7394L19.5985 11.77C19.8988 12.1063 20.2248 12.4708 20.4859 12.8236L20.4931 12.8318L20.5003 12.8413C21.2791 13.7296 21.9268 14.7566 22.418 15.8821C22.4962 16.1878 22.4489 16.3454 22.3872 16.4265C22.3162 16.5206 22.1568 16.6088 21.8545 16.6088H19.5081C19.3481 16.6133 19.1899 16.5708 19.0484 16.4853C18.8751 16.37 18.7177 16.2258 18.5816 16.0573C18.4346 15.8892 18.2752 15.6857 18.0798 15.4376L17.9276 15.2448Z" fill="white"/>
</svg>
